<?xml version="1.0" encoding="UTF-8" standalone="no"?>
<svg width="23px" height="23px" viewBox="0 0 23 23" version="1.1" xmlns="http://www.w3.org/2000/svg" xmlns:xlink="http://www.w3.org/1999/xlink" xmlns:sketch="http://www.bohemiancoding.com/sketch/ns">
    <!-- Generator: Sketch 3.2.1 (9977) - http://www.bohemiancoding.com/sketch -->
    <title>logout10</title>
    <desc>Created with Sketch.</desc>
    <defs></defs>
    <g id="Welcome" stroke="none" stroke-width="1" fill="none" fill-rule="evenodd" sketch:type="MSPage">
        <g id="Desktop-HD" sketch:type="MSArtboardGroup" transform="translate(-37.000000, -400.000000)" fill="#8A8A8A">
            <g id="Sidebar-Nav" sketch:type="MSLayerGroup" transform="translate(0.000000, 163.000000)">
                <g id="logout10" transform="translate(48.000000, 248.500000) scale(-1, 1) translate(-48.000000, -248.500000) translate(36.000000, 237.000000)" sketch:type="MSShapeGroup">
                    <path d="M8.36363636,12.0227273 L21.6931818,12.0227273 L18.8181818,16.7272727 L19.8636364,16.7272727 L23,11.5 L19.8636364,6.27272727 L18.8181818,6.27272727 L21.6931818,10.9793636 L8.36363636,10.9793636 L8.36363636,12.0227273 Z" id="Shape"></path>
                    <path d="M0,23 L15.6818182,23 L15.6818182,16.2045455 L14.6363636,16.2045455 L14.6363636,21.9545455 L1.04545455,21.9545455 L1.04545455,1.04545455 L14.6363636,1.04545455 L14.6363636,6.79545455 L15.6818182,6.79545455 L15.6818182,0 L0,0 L0,23 Z" id="Shape"></path>
                </g>
            </g>
        </g>
    </g>
</svg>