<?xml version="1.0" encoding="UTF-8" standalone="no"?>
<svg width="26px" height="24px" viewBox="0 0 26 24" version="1.1" xmlns="http://www.w3.org/2000/svg" xmlns:xlink="http://www.w3.org/1999/xlink" xmlns:sketch="http://www.bohemiancoding.com/sketch/ns">
    <!-- Generator: Sketch 3.2.1 (9977) - http://www.bohemiancoding.com/sketch -->
    <title>House Icon</title>
    <desc>Created with Sketch.</desc>
    <defs></defs>
    <g id="Welcome" stroke="none" stroke-width="1" fill="none" fill-rule="evenodd" sketch:type="MSPage">
        <g id="Desktop-HD" sketch:type="MSArtboardGroup" transform="translate(-36.000000, -274.000000)" fill="#8A8A8A">
            <g id="Sidebar-Nav" sketch:type="MSLayerGroup" transform="translate(0.000000, 163.000000)">
                <g id="House-Icon" transform="translate(36.000000, 111.000000)" sketch:type="MSShapeGroup">
                    <path d="M21.5814444,11.6357647 C21.1616889,11.6357647 20.8366889,11.952 20.8366889,12.3642353 L20.8366889,22.3143529 L15.5555111,22.3143529 L15.5555111,18.2512941 C15.5555111,17.8701176 15.2305111,17.5369412 14.8376222,17.5369412 L11.0190889,17.5369412 C10.5990444,17.5369412 10.2607556,17.8701176 10.2607556,18.2512941 L10.2607556,22.3143529 L4.99286667,22.3143529 L4.99286667,12.6945882 C4.99286667,12.3105882 4.66815556,11.9915294 4.24811111,11.9915294 C3.85551111,11.9915294 3.53051111,12.3105882 3.53051111,12.6945882 L3.53051111,23.0428235 C3.53051111,23.4268235 3.85551111,23.7458824 4.24811111,23.7458824 L11.0190889,23.7458824 C11.4116889,23.7458824 11.7366889,23.4268235 11.7366889,23.0428235 L11.7366889,18.9797647 L14.0928667,18.9797647 L14.0928667,23.0428235 C14.0928667,23.4268235 14.4178667,23.7458824 14.8376222,23.7458824 L21.5814444,23.7458824 C21.9740444,23.7458824 22.2990444,23.4268235 22.2990444,23.0428235 L22.2990444,12.3642353 C22.2990444,11.952 21.9740444,11.6357647 21.5814444,11.6357647 L21.5814444,11.6357647 Z" id="Shape"></path>
                    <path d="M25.6302222,12.2032941 L19.7533556,6.43482353 L19.7533556,2.50164706 C19.7533556,2.09223529 19.4147778,1.776 18.9950222,1.776 C18.6021333,1.776 18.2771333,2.09223529 18.2771333,2.50164706 L18.2771333,4.992 L13.4292889,0.225882353 C13.2808,0.0790588235 13.1042889,0 12.9283556,0 C12.7252667,0 12.5490444,0.0818823529 12.4002667,0.225882353 L0.226488889,12.1242353 C-0.0655777778,12.4094118 -0.0849333333,12.8668235 0.226488889,13.1294118 C0.497177778,13.4343529 0.963444444,13.4145882 1.25551111,13.1294118 L12.9283556,1.74776471 L24.5740444,13.2367059 C24.6953778,13.3552941 24.8718889,13.4230588 25.1021333,13.4230588 C25.3052222,13.4230588 25.4811556,13.3552941 25.6302222,13.2367059 C25.9012,12.9712941 25.9214222,12.4912941 25.6302222,12.2032941 L25.6302222,12.2032941 Z" id="Shape"></path>
                </g>
            </g>
        </g>
    </g>
</svg>