<?xml version="1.0" encoding="UTF-8" standalone="no"?>
<svg width="24px" height="24px" viewBox="0 0 24 24" version="1.1" xmlns="http://www.w3.org/2000/svg" xmlns:xlink="http://www.w3.org/1999/xlink" xmlns:sketch="http://www.bohemiancoding.com/sketch/ns">
    <!-- Generator: Sketch 3.2.1 (9977) - http://www.bohemiancoding.com/sketch -->
    <title>settings1</title>
    <desc>Created with Sketch.</desc>
    <defs></defs>
    <g id="Welcome" stroke="none" stroke-width="1" fill="none" fill-rule="evenodd" sketch:type="MSPage">
        <g id="Desktop-HD" sketch:type="MSArtboardGroup" transform="translate(-37.000000, -336.000000)" fill="#8A8A8A">
            <g id="Sidebar-Nav" sketch:type="MSLayerGroup" transform="translate(0.000000, 163.000000)">
                <g id="settings1" transform="translate(37.000000, 173.000000)" sketch:type="MSShapeGroup">
                    <path d="M13.268,23.507 L10.834,23.507 C10.37,23.507 10.236,23.507 8.972,20.379 L8.129,20.036 C5.531,21.215 5.219,21.215 5.085,21.215 C4.913,21.215 4.72,21.14 4.599,21.019 L2.878,19.334 C2.535,18.996 2.447,18.909 3.812,15.813 L3.472,15.01 C0.26,13.86 0.26,13.721 0.26,13.241 L0.26,10.856 C0.26,10.379 0.26,10.257 3.461,9.018 L3.801,8.213 C2.36,5.175 2.459,5.077 2.805,4.737 L4.529,3.052 C4.65,2.933 4.843,2.859 5.013,2.859 C5.138,2.859 5.463,2.859 8.105,3.974 L8.943,3.633 C10.118,0.492 10.267,0.492 10.732,0.492 L13.166,0.492 C13.629,0.492 13.764,0.492 15.027,3.622 L15.869,3.962 C18.465,2.786 18.777,2.786 18.913,2.786 C19.084,2.786 19.276,2.86 19.397,2.978 L21.122,4.661 C21.458,4.992 21.553,5.086 20.188,8.184 L20.527,8.992 C23.74,10.139 23.74,10.277 23.74,10.756 L23.74,13.14 C23.74,13.618 23.739,13.741 20.537,14.981 L20.199,15.786 C21.641,18.821 21.541,18.92 21.198,19.261 L19.47,20.949 C19.348,21.068 19.156,21.142 18.986,21.142 L18.986,21.142 C18.863,21.142 18.54,21.142 15.898,20.025 L15.056,20.366 C13.881,23.507 13.744,23.507 13.268,23.507 L13.268,23.507 Z M11.184,22.205 L12.909,22.205 C13.139,21.713 13.582,20.601 13.938,19.643 C14.001,19.472 14.134,19.335 14.303,19.267 L15.66,18.717 C15.819,18.653 16,18.654 16.159,18.722 C17.135,19.137 18.288,19.601 18.81,19.777 L20.018,18.593 C19.824,18.081 19.334,16.997 18.899,16.084 C18.82,15.917 18.815,15.723 18.886,15.551 L19.445,14.223 C19.514,14.06 19.646,13.931 19.811,13.869 C20.794,13.489 21.938,13.02 22.439,12.782 L22.439,11.126 C21.932,10.9 20.797,10.47 19.821,10.123 C19.648,10.062 19.509,9.932 19.438,9.762 L18.879,8.432 C18.81,8.266 18.811,8.079 18.884,7.915 C19.302,6.972 19.768,5.857 19.951,5.338 L18.742,4.157 C18.224,4.344 17.101,4.828 16.153,5.261 C15.992,5.335 15.804,5.34 15.639,5.272 L14.282,4.724 C14.119,4.658 13.987,4.527 13.922,4.363 C13.535,3.4 13.058,2.28 12.814,1.792 L11.09,1.792 C10.859,2.285 10.417,3.397 10.062,4.354 C10,4.526 9.866,4.663 9.697,4.731 L8.344,5.281 C8.183,5.346 8.004,5.345 7.844,5.277 C6.868,4.862 5.711,4.398 5.19,4.225 L3.982,5.406 C4.177,5.919 4.664,7.003 5.1,7.918 C5.18,8.085 5.183,8.279 5.112,8.451 L4.55,9.779 C4.481,9.942 4.35,10.07 4.185,10.133 C3.202,10.512 2.06,10.979 1.56,11.217 L1.56,12.874 C2.065,13.102 3.201,13.533 4.178,13.881 C4.35,13.943 4.489,14.074 4.559,14.241 L5.117,15.568 C5.187,15.733 5.184,15.919 5.113,16.083 C4.695,17.027 4.229,18.142 4.046,18.66 L5.254,19.842 C5.771,19.654 6.894,19.17 7.843,18.738 C8.005,18.664 8.191,18.66 8.357,18.726 L9.714,19.277 C9.879,19.343 10.008,19.473 10.073,19.637 C10.462,20.6 10.94,21.719 11.184,22.205 L11.184,22.205 Z M12,16.13 C9.681,16.13 7.793,14.276 7.793,12 C7.793,9.725 9.681,7.873 12,7.873 C14.318,7.873 16.205,9.725 16.205,12 C16.205,14.276 14.318,16.13 12,16.13 L12,16.13 Z M12,9.174 C10.398,9.174 9.095,10.442 9.095,12 C9.095,13.561 10.398,14.829 12,14.829 C13.602,14.829 14.904,13.56 14.904,12 C14.904,10.441 13.602,9.174 12,9.174 L12,9.174 Z" id="Shape"></path>
                </g>
            </g>
        </g>
    </g>
</svg>